<?xml version="1.0" encoding="UTF-8"?>
<svg width="70px" height="70px" viewBox="0 0 70 70" version="1.1" xmlns="http://www.w3.org/2000/svg" xmlns:xlink="http://www.w3.org/1999/xlink">
    <!-- Generator: Sketch 62 (91390) - https://sketch.com -->
    <title>Icon_Droid</title>
    <desc>Created with Sketch.</desc>
    <g id="Icon_Droid" stroke="none" stroke-width="1" fill="none" fill-rule="evenodd">
        <path d="M10.530303,22.9916804 C8.38920455,22.9916804 6.66666667,24.7097773 6.66666667,26.8453557 L6.66666667,42.2600567 C6.66666667,44.3956351 8.38920455,46.113732 10.530303,46.113732 C12.6714015,46.113732 14.3939394,44.3956351 14.3939394,42.2600567 L14.3939394,26.8453557 C14.3939394,24.7097773 12.6714015,22.9916804 10.530303,22.9916804 L10.530303,22.9916804 Z M59.469697,22.9916804 C57.3285985,22.9916804 55.6060606,24.7097773 55.6060606,26.8453557 L55.6060606,42.2600567 C55.6060606,44.3956351 57.3285985,46.113732 59.469697,46.113732 C61.6107955,46.113732 63.3333333,44.3956351 63.3333333,42.2600567 L63.3333333,26.8453557 C63.3333333,24.7097773 61.6107955,22.9916804 59.469697,22.9916804 L59.469697,22.9916804 Z M53.030303,25.5607973 L53.030303,52.2314414 C53.030303,53.3233161 52.3219697,54.4633617 51.1950758,54.4633617 L51.1950758,54.4633617 L46.7518939,54.4633617 L46.7518939,62.8129914 C46.7518939,64.9485698 45.0293561,66.6666667 42.8882576,66.6666667 L42.8882576,66.6666667 L42.8077652,66.6666667 C41.90625,66.6666667 41.0691288,66.3455271 40.4412879,65.7995897 C39.5719697,65.0930826 39.0246212,64.0172649 39.0246212,62.8129914 L39.0246212,62.8129914 L39.0246212,54.4633617 L31.1363636,54.4633617 L31.1363636,62.8129914 C31.1363636,64.9485698 29.4138258,66.6666667 27.2727273,66.6666667 C25.1316288,66.6666667 23.4090909,64.9485698 23.4090909,62.8129914 L23.4090909,62.8129914 L23.4090909,54.4633617 L18.8049242,54.4633617 C17.6941288,54.4633617 16.969697,53.3233161 16.969697,52.2153845 L16.969697,52.2153845 L16.969697,25.5607973 L53.030303,25.5607973 Z M46.2206761,5.05601745 C46.2689716,4.95967556 46.4782519,4.99178953 46.6553352,5.12024537 C46.8324186,5.26475819 46.9288485,5.44138497 46.8646155,5.52166987 L46.8646155,5.52166987 L43.8863958,9.03814854 C51.6779015,12.4582853 52.8210549,20.5831173 52.9657803,23.0077213 L52.9657803,23.0077213 L16.9697292,23.0077213 C17.130714,20.5991743 18.2898049,12.3619435 26.0492746,9.00603458 L26.0492746,9.00603458 L23.1032519,5.53772685 C23.038858,5.42532799 23.1354489,5.26475819 23.3125322,5.13630235 C23.4896155,5.00784651 23.6827973,4.99178953 23.7471913,5.07207443 L23.7471913,5.07207443 L26.8059034,8.668838 C28.9952973,7.81781805 31.6837443,7.2879377 34.9839337,7.30399468 C38.2680246,7.30399468 40.9403731,7.84993201 43.129767,8.71700894 L43.129767,8.71700894 Z M42.9204867,12.763368 C41.7131004,12.763368 40.7471913,13.7267868 40.7471913,14.8989463 C40.7471913,16.0711059 41.7291989,17.0345247 42.9204867,17.0345247 C44.1116136,17.0345247 45.0937822,16.0711059 45.0937822,14.8989463 C45.0937822,13.7267868 44.1116136,12.763368 42.9204867,12.763368 Z M27.0795777,12.763368 C25.8721913,12.763368 24.9062822,13.7267868 24.9062822,14.8989463 C24.9062822,16.0711059 25.8882898,17.0345247 27.0795777,17.0345247 C28.286964,17.0345247 29.2528731,16.0711059 29.2528731,14.8989463 C29.2528731,13.7267868 28.2708655,12.763368 27.0795777,12.763368 Z" id="Fill-1" fill="#A4C639"></path>
    </g>
</svg>