<?xml version="1.0" standalone="no"?>
<!DOCTYPE svg PUBLIC "-//W3C//DTD SVG 20010904//EN"
 "http://www.w3.org/TR/2001/REC-SVG-20010904/DTD/svg10.dtd">
<svg version="1.0" xmlns="http://www.w3.org/2000/svg"
 width="413.000000pt" height="413.000000pt" viewBox="0 0 413.000000 413.000000"
 preserveAspectRatio="xMidYMid meet">
<metadata>
Created by potrace 1.11, written by Peter Selinger 2001-2013
</metadata>
<g transform="translate(0.000000,413.000000) scale(0.100000,-0.100000)"
fill="#000000" stroke="none">
<path d="M1849 3423 c59 -104 119 -208 133 -233 14 -25 84 -146 155 -270 72
-124 289 -502 483 -840 194 -338 414 -721 488 -850 74 -129 162 -282 195 -340
33 -58 68 -118 78 -135 10 -16 36 -63 59 -102 l41 -73 280 0 281 0 -24 43
c-107 186 -138 241 -148 257 -9 14 -287 498 -333 580 -32 58 -476 831 -513
893 -19 32 -34 63 -34 68 0 5 -4 9 -10 9 -5 0 -10 4 -10 9 0 7 -345 614 -490
861 -21 36 -69 119 -107 185 l-68 120 -282 3 -282 2 108 -187z"/>
<path d="M1447 3100 c-75 -132 -137 -244 -137 -249 0 -6 8 -25 19 -43 10 -18
121 -211 246 -428 125 -217 236 -411 247 -430 10 -19 23 -42 28 -50 5 -8 48
-82 96 -165 47 -82 103 -179 124 -215 21 -36 147 -256 280 -490 134 -234 248
-431 255 -438 8 -9 74 -12 288 -10 l276 3 -69 118 c-39 66 -70 121 -70 123 0
2 -17 32 -38 66 -21 35 -52 88 -69 118 -16 30 -63 111 -103 180 -40 68 -82
140 -93 160 -28 50 -371 648 -396 690 -11 19 -28 49 -37 65 -21 37 -706 1229
-708 1232 0 1 -63 -106 -139 -237z"/>
<path d="M1095 2483 c-32 -54 -66 -110 -76 -125 -10 -15 -19 -30 -19 -33 0 -4
-23 -45 -51 -93 -29 -48 -62 -105 -74 -127 -12 -22 -31 -56 -42 -75 -11 -19
-82 -143 -158 -275 -76 -132 -197 -341 -268 -465 -71 -124 -143 -250 -160
-280 -16 -30 -33 -59 -37 -65 -4 -5 -19 -30 -32 -55 -14 -25 -59 -103 -101
-175 l-75 -130 1146 -3 c630 -1 1147 -1 1149 1 2 2 -61 116 -140 253 l-143
249 -563 2 c-309 0 -564 3 -566 5 -4 4 43 90 207 373 63 110 125 216 136 235
10 19 55 96 97 170 43 74 87 151 98 171 l19 37 -36 63 c-20 35 -41 71 -46 79
-5 8 -27 47 -49 85 -21 39 -66 117 -99 173 l-60 104 -57 -99z"/>
</g>
</svg>
