<?xml version="1.0" encoding="UTF-8"?>
<svg width="70px" height="70px" viewBox="0 0 70 70" version="1.1" xmlns="http://www.w3.org/2000/svg" xmlns:xlink="http://www.w3.org/1999/xlink">
    <!-- Generator: Sketch 58 (84663) - https://sketch.com -->
    <title>Icons/Misc/Isometric</title>
    <desc>Created with Sketch.</desc>
    <g id="Icons/Misc/Isometric" stroke="none" stroke-width="1" fill="none" fill-rule="evenodd">
        <path d="M34.9849982,16.0026968 C34.8768682,16.010196 34.7668721,16.0326841 34.6568759,16.0626714 L24.6790938,19.8560409 C24.1160597,20.1053097 24.0228491,20.3976835 24.0228491,20.9355837 L24.0228491,31.6259361 L14.5371321,36.169036 C14.1232494,36.4089344 14.0001004,36.7313099 14.0001004,37.1886042 L14.0001004,48.4935764 C13.9946116,48.853424 14.2146034,49.2057868 14.5371321,49.3632081 L24.3359375,54.1611761 C24.7143973,54.3804571 25.0835314,54.3917036 25.469451,54.2361443 L35.0000322,49.5730952 L44.5454088,54.251114 C44.908954,54.4460314 45.294864,54.3017182 45.5894343,54.206133 L55.4631719,49.3630642 C55.7857006,49.2056332 56.0019607,48.8532801 56.0001112,48.4934325 L56.0001112,37.1731068 C56.0001112,36.6164466 55.8136686,36.3822098 55.373684,36.138569 L45.9772153,31.640474 L45.9772153,20.9050206 C45.9884024,20.4214814 45.5726536,19.9247957 45.261312,19.8404475 L35.3283932,16.0620477 C35.1997549,16.0058203 35.0934862,15.9945787 34.9853562,16.0020731 L34.9849982,16.0026968 Z M34.5511992,17.8260874 L42.3044555,20.7339802 L34.5511992,24.2173934 L26.7827124,20.7339802 L34.5511992,17.8260874 Z M25.8696687,22.391306 L34.0870621,26.2033061 L34.0870621,36.0869617 L25.8696687,32.0136797 L25.8696687,22.391306 Z M24.545258,33.3478305 L32.2609747,37.1202408 L24.5601495,40.6521802 L16.7392316,37.0751766 L24.545258,33.3478305 Z M45.4474574,33.3478305 L53.2609801,37.075153 L45.4474574,40.6521802 L37.739237,37.1202176 L45.4474574,33.3478305 Z M15.8261879,37.9130491 L24.0435813,41.7250492 L24.0435813,51.6087048 L15.8261879,47.5200272 L15.8261879,37.9130491 Z M35.9131495,37.9130491 L44.130543,41.7250492 L44.130543,51.6087048 L35.9131495,47.5354228 L35.9131495,37.9130491 Z" id="Fill-1-Copy-2" fill="#FF9900"></path>
    </g>
</svg>