<?xml version="1.0" encoding="UTF-8"?>
<svg width="70px" height="70px" viewBox="0 0 70 70" version="1.1" xmlns="http://www.w3.org/2000/svg" xmlns:xlink="http://www.w3.org/1999/xlink">
    <!-- Generator: Sketch 58 (84663) - https://sketch.com -->
    <title>Icons/Misc/Bugle</title>
    <desc>Created with Sketch.</desc>
    <g id="Icons/Misc/Bugle" stroke="none" stroke-width="1" fill="none" fill-rule="evenodd">
        <path d="M40.9865091,24.005252 L15.7331293,28.8480034 C15.0580191,28.9636963 14.565703,29.5623574 14.5746157,30.2583766 L14.5746157,38.1089839 C14.5656887,38.805003 15.0580191,39.4036594 15.7331293,39.519357 L20.6437755,40.8819656 L20.6455872,46.0072618 C20.6311073,46.3855662 20.7740944,46.7509986 21.0383558,47.0191105 C21.3008055,47.2853937 21.6628212,47.4304693 22.0356377,47.4176161 L34.0829027,47.4176161 C34.4539492,47.4304693 34.8159324,47.2853937 35.0801846,47.0191105 C35.3426342,46.7509939 35.4856214,46.3855238 35.4729532,46.0072618 L35.4729532,43.4215776 L40.985967,44.3618264 L40.985967,46.1486752 L43.7661051,46.1486752 L43.7661051,22.2184032 L40.985967,22.2184032 L40.9865091,24.005252 Z M48.3645593,38.9395776 L54.4455635,42.7674711 L53.2286954,45.2395776 L47.1476912,41.4116841 L48.3645593,38.9395776 Z M23.8795039,41.9127087 L33.2624826,43.4636352 L33.2624826,45.0627087 L23.8795039,45.0627087 L23.8795039,41.9127087 Z M54.9954096,33.0181478 L54.9954096,36.1681478 L47.6975373,36.1681478 L47.6975373,33.0181478 L54.9954096,33.0181478 Z M52.9119441,24.3560186 L54.1279784,26.8274036 L48.0461403,30.6560186 L46.830106,28.1846335 L52.9119441,24.3560186 Z" id="Fill-1" fill="#FF9900" transform="translate(34.785013, 34.818403) rotate(-29.000000) translate(-34.785013, -34.818403) "></path>
    </g>
</svg>