<?xml version="1.0" encoding="UTF-8"?>
<svg width="30px" height="30px" xmlns="http://www.w3.org/2000/svg" viewBox="0 0 130 130">
  <path class="st0" d="M53.6,57.8L53.6,57.8c1.9,0,3.8-0.8,5.2-2.2l9.5-9.5l2.5-5l2-4.6c0.5-1.2,1.6-1.9,2.9-1.9
  c2.3,0,4.2,1.9,4.2,4.2l0,0c-0.1,2.1-0.5,4.3-1.1,6.3L74,55.9c-0.2,0.5-0.1,1.1,0.3,1.5l0,0c0.3,0.3,0.6,0.4,1,0.4h16.3
  c1.7,0,3.3,1,4,2.5c1,2.2,0,4.9-2.2,5.9c-0.6,0.3-1.2,0.4-1.8,0.4h2.1c2.1,0,3.9,1.5,4.2,3.6c0.2,2.2-1.4,4.1-3.6,4.3
  c-0.1,0-0.3,0-0.4,0h-2.4c2.4,0,4.4,2,4.4,4.5c0,0.6-0.1,1.2-0.4,1.8c-0.7,1.6-2.3,2.6-4,2.6h-2.2c2.4,0,4.3,1.9,4.3,4.2
  c0,0.1,0,0.1,0,0.2c-0.3,2.1-2.1,3.7-4.2,3.6h-25c-1.5-0.1-3-0.5-4.5-1l0,0c-1.5-0.6-3-1.1-4.5-1.4l-1.8-0.2"></path>
  <polyline class="st0" points="34.8,68.2 34.8,56.2 50,56.2 50,92.2 34.8,92.2 34.8,68.2 "></polyline>
</svg>
