<?xml version="1.0" encoding="UTF-8"?>
<svg width="22px" height="18px" viewBox="0 0 22 18" version="1.1" xmlns="http://www.w3.org/2000/svg" xmlns:xlink="http://www.w3.org/1999/xlink">
    <!-- Generator: Sketch 57.1 (83088) - https://sketch.com -->
    <title>twitter-logo</title>
    <desc>Created with Sketch.</desc>
    <g id="Page-1" stroke="none" stroke-width="1" fill="none" fill-rule="evenodd">
        <g id="twitter-logo" fill="#FFFFFF" fill-rule="nonzero">
            <path d="M6.92,17.94 C10.331913,17.9614592 13.6103003,16.6155695 16.0229349,14.2029349 C18.4355695,11.7903003 19.7814592,8.51191305 19.76,5.1 C19.76,4.9 19.76,4.71 19.76,4.51 C20.6355927,3.86848874 21.39346,3.08017142 22,2.18 C21.1755175,2.54059545 20.3031099,2.77974965 19.41,2.89 C20.3569106,2.32578035 21.0674002,1.43766828 21.41,0.39 C20.5275212,0.919440882 19.5598158,1.29163529 18.55,1.49 C17.1518418,0.00022482358 14.9281541,-0.366414167 13.1257388,0.595654246 C11.3233235,1.55772266 10.3903795,3.60926511 10.85,5.6 C7.22180191,5.42191235 3.84048219,3.70943752 1.55,0.89 C0.364960856,2.94678024 0.977064267,5.57008057 2.95,6.89 C2.24861239,6.86294899 1.5634527,6.67110428 0.95,6.33 L0.95,6.38 C0.937157078,8.5144464 2.41605299,10.3682737 4.5,10.83 C3.84763801,11.0054602 3.16429216,11.0327941 2.5,10.91 C3.09993949,12.72013 4.77351779,13.9572967 6.68,14 C5.08921111,15.280524 3.11209136,15.9853795 1.07,16 C0.711953176,15.9896373 0.354747161,15.959592 0,15.91 C2.06695516,17.2268981 4.46920442,17.9211898 6.92,17.91" id="Path"></path>
        </g>
    </g>
</svg>