<?xml version="1.0" encoding="UTF-8"?>
<svg width="70px" height="70px" viewBox="0 0 70 70" version="1.1" xmlns="http://www.w3.org/2000/svg" xmlns:xlink="http://www.w3.org/1999/xlink">
    <!-- Generator: Sketch 62 (91390) - https://sketch.com -->
    <title>Icons/Categories/Auth</title>
    <desc>Created with Sketch.</desc>
    <g id="Icons/Categories/Auth" stroke="none" stroke-width="1" fill="none" fill-rule="evenodd">
        <path d="M60.7847452,47.029397 L52.3039503,47.029397 L52.3039503,43.4534388 C52.3039503,41.9503921 53.7892202,40.7351384 55.5560525,40.7351384 C56.6161518,40.7351384 57.6762512,41.1653691 58.2422029,41.9503921 C58.8081405,42.6655837 59.9372311,42.8080499 60.643964,42.1655074 C61.3506969,41.5927962 61.4914781,40.4501918 60.8565352,39.7350001 C59.5838505,38.1621507 57.604433,37.3044928 55.5560383,37.3044928 C51.8815926,37.3044928 48.9138798,40.0925959 48.9138798,43.4562853 L48.9138798,47.4625028 C48.2071469,47.9625791 47.7819763,48.7504199 47.7819763,49.6080777 L47.7819763,53.7567614 C47.7819763,58.1205747 51.2438368,61.6238673 55.5560383,61.6238673 C59.8682399,61.6238673 63.3301003,58.1205747 63.3301003,53.7567614 L63.3301003,49.6080777 C63.4018761,48.2447794 62.270001,47.0294542 60.7847311,47.0294542 L60.7847452,47.029397 Z M33.5753869,27.7160759 C39.86743,27.7160759 45.3084253,31.1495679 48.2761381,36.2983756 C45.0268629,37.6592422 42.8348601,40.7351384 42.8348601,44.2384331 L42.8348601,44.2384331 L42.8348601,47.1718632 C42.1280989,48.029521 41.7029567,49.1749719 41.7029567,50.3902256 L41.7029567,50.3902256 L41.70331,54.5384658 C41.70331,57.8995805 43.2603133,60.905601 45.7338785,62.833257 C44.8863644,63.1908529 43.9670462,63.3333333 43.0477281,63.3333333 L43.0477281,63.3333333 L19.159449,63.3333333 C15.05955,63.3333333 11.6666667,59.9693594 11.6666667,55.750873 L11.6666667,55.750873 L11.6666667,44.8806752 C11.6666667,35.3679112 19.2280021,27.7160759 28.6282565,27.7160759 L28.6282565,27.7160759 Z M57.3200578,52.7512162 C57.7452001,53.1814469 58.0267907,53.8240037 58.0267907,54.3967291 C57.9577783,54.9694403 57.6761876,55.6119828 57.25101,56.0422421 C56.8259384,56.4724727 56.1909813,56.7574337 55.6250296,56.7574337 C54.9900725,56.7574337 54.424149,56.5423184 53.9989785,56.0422421 C53.5738363,55.6120114 53.2922456,54.9694546 53.2922456,54.3967291 C53.2922456,53.7541724 53.5048167,53.1814755 53.9989785,52.7512162 C54.8464926,51.8935584 56.4007396,51.8935584 57.3200578,52.7512162 Z M31.1026698,3.33333333 C36.5301665,3.33333333 40.9276707,7.78375636 40.9276707,13.2730668 C40.9276707,18.7627348 36.5298838,23.2128002 31.1026698,23.2128002 C25.6779293,23.2128002 21.2804958,18.7623772 21.2804958,13.2730668 C21.2804958,7.78375636 25.6782827,3.33333333 31.1026698,3.33333333 Z" id="Fill-3" fill="#7391DA"></path>
    </g>
</svg>