<?xml version="1.0" encoding="UTF-8"?>
<svg width="70px" height="70px" viewBox="0 0 70 70" version="1.1" xmlns="http://www.w3.org/2000/svg" xmlns:xlink="http://www.w3.org/1999/xlink">
    <!-- Generator: Sketch 63.1 (92452) - https://sketch.com -->
    <title>Icons/Categories/DataStore</title>
    <desc>Created with Sketch.</desc>
    <g id="Icons/Categories/DataStore" stroke="none" stroke-width="1" fill="none" fill-rule="evenodd">
        <path d="M40.3460763,45.7634605 C40.686281,45.7583758 41.0282399,45.8817957 41.291659,46.1112849 L41.291659,46.1112849 L44.9289396,49.199695 C45.5225799,49.7062633 45.633623,50.7409036 45.1559612,51.3712058 C44.6786518,52.0015079 43.7042921,52.1188964 43.1102993,51.6123281 L43.1102993,51.6123281 L42.1556806,50.8159899 C42.5022058,51.8594432 43.056364,52.8486086 43.7695079,53.7112201 C45.2102489,55.4547741 47.2446302,56.5824791 49.1115655,56.5824791 C50.4951986,56.5824791 52.3138388,56.5521626 54.1123856,55.2795727 C54.7490331,54.8241194 55.7177525,55.0264647 56.1467669,55.7018892 C56.5761338,56.3773137 56.3857741,57.4059612 55.7491266,57.8614144 C53.3604404,59.554303 50.8654154,59.6634154 49.4159822,59.6704135 L49.1115655,59.67089 C46.2075223,59.67089 43.4994791,58.0753928 41.5870691,55.7621698 C40.5245799,54.4775942 39.7176662,52.9392058 39.2685583,51.2746158 L39.2685583,51.2746158 L38.6093496,52.1432201 C38.1316878,52.7735223 37.1573281,52.8912633 36.5633353,52.384695 C35.969695,51.8777741 35.8586518,50.8434863 36.3359612,50.2131842 L36.3359612,50.2131842 L39.2456446,46.3527597 C39.478659,46.0393712 39.8283568,45.8250403 40.2006158,45.7739252 L40.2006158,45.7739252 Z M12.4284029,42.291541 C15.6384317,43.9430878 23.9063885,45.1190878 33.599223,45.1190878 C33.8276547,45.1190878 34.0546763,45.1176777 34.2816978,45.1162676 C33.8399928,46.5894403 33.599223,48.1496849 33.599223,49.7666849 C33.599223,52.0499439 34.0754748,54.2211022 34.9292734,56.1906201 C34.4889784,56.1955554 34.0462158,56.1987281 33.599223,56.1987281 C21.1186763,56.1987281 11,54.2478935 11,51.8430158 L11,51.8430158 L11,43.8175914 C11,43.2796489 11.5069209,42.7660302 12.4284029,42.291541 Z M51.1144669,37.4191079 C54.0135748,37.4191079 56.7166827,38.9966259 58.6259201,41.311964 C59.6922871,42.605705 60.5178842,44.1504388 60.9627619,45.8337122 L60.9627619,45.8337122 L61.5983518,44.9633453 C61.8567475,44.6065971 62.2649633,44.3799281 62.6876324,44.358777 C63.2463734,44.3316331 63.8051144,44.682036 64.0546971,45.2171583 C64.3042799,45.7522806 64.2277835,46.4414532 63.8675101,46.897964 L63.8675101,46.897964 L60.9627619,50.7664964 C60.4893302,51.4013813 59.5135604,51.5163022 58.9209777,51.0083237 L58.9209777,51.0083237 L55.2900424,47.9132158 C54.6971072,47.4055899 54.5864165,46.3688345 55.0630209,45.7371223 C55.5396252,45.1054101 56.5122223,44.9876691 57.1051576,45.495295 L57.1051576,45.495295 L58.035805,46.2933957 C57.6924525,45.241482 57.1590928,44.2318705 56.4470065,43.3674964 C55.0090856,41.6235899 52.9782295,40.5142158 51.1144669,40.5142158 C49.7333014,40.5142158 47.9178338,40.5202086 46.1221072,41.7956187 C45.4868698,42.2521295 44.5195604,42.0494317 44.0912511,41.3725971 C43.6629417,40.6954101 43.8529489,39.665 44.4885388,39.2084892 C46.8666252,37.5188705 49.3504669,37.4240432 50.7989633,37.4191079 L50.7989633,37.4191079 Z M54.7705014,28.3840367 C55.693746,28.8585259 56.1989043,29.3742597 56.1989043,29.9104396 L56.1989043,29.9104396 L56.1989043,34.9327633 C54.2272712,34.0764971 52.0532928,33.5991878 49.7668612,33.5991878 C43.541746,33.5991878 38.1422281,37.1194324 35.4405302,42.2757129 C34.8324367,42.2852309 34.2197604,42.2912237 33.5993288,42.2912237 C21.118782,42.2912237 11.0001058,40.3403892 11.0001058,37.935864 L11.0001058,37.935864 L11.0001058,29.9104396 C11.0001058,29.3724971 11.5066741,28.8585259 12.4285086,28.3840367 C15.6381849,30.035936 23.9068468,31.213346 33.5996813,31.213346 C43.2921633,31.213346 51.5604727,30.037346 54.7705014,28.3840367 Z M34.0389081,11.0008388 C46.3169846,11.0477423 56.1989748,13.0556609 56.1989748,15.5242158 L56.1989748,15.5242158 L56.1989748,23.8598561 C56.1989748,26.3592086 46.0802986,28.3840719 33.5993993,28.3840719 C21.1188525,28.3840719 11.0001763,26.3595612 11.0001763,23.8598561 L11.0001763,23.8598561 L11.0001763,15.5242158 C11.0001763,13.0262734 21.1188525,11 33.5993993,11 Z" id="Fill-11" fill="#AE8D8D"></path>
    </g>
</svg>