<?xml version="1.0" encoding="UTF-8"?>
<svg width="70px" height="70px" viewBox="0 0 70 70" version="1.1" xmlns="http://www.w3.org/2000/svg" xmlns:xlink="http://www.w3.org/1999/xlink">
    <!-- Generator: Sketch 62 (91390) - https://sketch.com -->
    <title>Icons/Categories/Cloud Load</title>
    <desc>Created with Sketch.</desc>
    <g id="Icons/Categories/Cloud-Load" stroke="none" stroke-width="1" fill="none" fill-rule="evenodd">
        <path d="M29.4442791,8.33333333 C19.3221171,8.33333333 12.312635,17.3603394 13.5713577,26.0802466 C6.99584129,26.0802466 1.66666667,31.5959873 1.66666667,37.6543205 C1.66666667,44.8670519 7.30282359,49.9999993 13.5713577,49.9999993 L17.3907794,49.9999993 L21.5078184,43.8271599 C22.2983613,42.6395828 23.6562183,42.2839501 24.6824027,42.2839501 C24.6979026,41.5364578 24.6669028,40.9788575 24.7320056,40.2344131 C24.8498144,38.8961415 25.6465239,37.636265 26.7905647,36.8827156 C30.4301462,34.5226848 34.2836947,34.5679008 35.7936858,34.5679008 C40.0905649,34.5679008 43.7825271,36.629552 46.3840989,39.5109563 C46.9390321,40.1258328 47.4412355,40.8070211 47.896947,41.5123452 C48.0457557,41.4882325 48.1945643,41.4731631 48.343373,41.4641198 C50.1693938,41.3917819 51.9954147,42.428626 52.8076321,44.0200612 C53.6198495,45.6114963 53.3749621,47.6641197 52.2123975,49.0354932 L51.4187515,49.9999993 L54.8413502,49.9999993 C62.9111434,49.9999993 68.3333333,44.8519284 68.3333333,38.4259255 C68.3333333,33.0518515 64.439547,27.770833 58.8095805,26.8518516 C58.8095805,17.5925924 50.0794737,13.7345678 43.7303052,16.8209875 C41.349367,12.191358 36.2278895,8.33333333 29.4446759,8.33333333 L29.4442791,8.33333333 Z M36.0601158,38.3333329 C34.5886292,38.3333329 31.7301256,38.3043868 29.0016523,40.0488506 C28.3248134,40.4864131 28.1223805,41.4745786 28.5786241,42.123682 C29.0348677,42.7727855 30.0652719,42.9669231 30.7421109,42.5293754 C32.6548191,41.3065387 34.5886447,41.3007524 36.0601313,41.3007524 C38.0453193,41.3007524 40.2088061,42.3642435 41.7407827,44.0362599 C42.4992059,44.8650352 43.0672324,45.8329041 43.4328801,46.8412771 L42.4418332,46.0762994 C41.8103154,45.5894718 40.7739473,45.7024826 40.2662794,46.3081221 C39.7586115,46.9137616 39.8764897,47.9076614 40.5080076,48.3945261 L44.3756588,51.3618563 C45.0071766,51.8486839 46.0466388,51.7385663 46.5512126,51.1300336 L49.6453336,47.4208709 C50.0290742,46.9833084 50.1106585,46.3225878 49.8447574,45.8096848 C49.5788564,45.2967818 48.9835862,44.9606574 48.3883547,44.9866957 C47.9381369,45.0069775 47.5030493,45.2243121 47.2280593,45.5662524 L46.5512204,46.400814 C46.0768297,44.7867348 45.1975424,43.3059628 44.0613812,42.065693 C42.0278475,39.8459816 39.1482265,38.3333329 36.0599843,38.3333329 L36.0601158,38.3333329 Z M24.4339892,48.3432949 C24.037469,48.3924507 23.6651637,48.5977342 23.4169628,48.8984353 L20.3174539,52.5993714 C19.8089407,53.2036677 19.9269855,54.1953631 20.559603,54.681148 C21.1922205,55.1669329 22.2303933,55.0541358 22.7389452,54.4498395 L23.4411777,53.6171289 C23.9194242,55.2131206 24.7790808,56.6877216 25.9110989,57.9194671 C27.9481737,60.1371421 30.8328092,61.6666658 33.9264291,61.6666658 C35.4004781,61.6666658 38.2639594,61.67534 40.9971839,59.9318142 C41.6752015,59.4952221 41.8779868,58.5092483 41.4209488,57.8615845 C40.9639107,57.2139207 39.9317122,57.0202137 39.2536946,57.4567909 C37.3376557,58.6769155 35.4004626,58.7058569 33.9264136,58.7058569 C31.9377686,58.7058569 29.7705145,57.6245173 28.2358701,55.9532486 C27.4761262,55.1263114 26.885879,54.1779835 26.5165725,53.1775465 L27.5335989,53.9408275 C28.1662164,54.4265754 29.2043892,54.3138153 29.7129411,53.709519 C30.221493,53.1052228 30.1034095,52.1135273 29.470792,51.6277425 L25.5964058,48.6669935 C25.2755601,48.4154483 24.8457435,48.2968999 24.4340899,48.3431616 L24.4339892,48.3432949 Z" id="Fill-1" fill="#73DA8C"></path>
    </g>
</svg>