<?xml version="1.0" encoding="UTF-8"?>
<svg width="70px" height="70px" viewBox="0 0 70 70" version="1.1" xmlns="http://www.w3.org/2000/svg" xmlns:xlink="http://www.w3.org/1999/xlink">
    <!-- Generator: Sketch 62 (91390) - https://sketch.com -->
    <title>Icons/Categories/Servers</title>
    <desc>Created with Sketch.</desc>
    <g id="Icons/Categories/Servers" stroke="none" stroke-width="1" fill="none" fill-rule="evenodd">
        <path d="M34.9999133,32.7125072 C44.2927466,32.7125072 52.2197133,31.5853087 55.2972467,30 C56.1825467,30.4548197 56.6666667,30.9492109 56.6666667,31.4633879 L56.6666667,39.1574804 C56.6666667,41.4629238 46.9656333,43.3333333 34.9999999,43.3333333 C23.0343666,43.3333333 13.3333333,41.4629238 13.3333333,39.1574804 L13.3333333,31.4633879 C13.3333333,30.9475656 13.8191432,30.4548619 14.7027532,30 C17.7801132,31.5836634 25.7072532,32.7125072 35.0000866,32.7125072 L34.9999133,32.7125072 Z M14.7027534,43.3333333 C13.8191434,43.788153 13.3333333,44.2808989 13.3333333,44.7967211 L13.3333333,52.4908137 C13.3333333,54.796257 23.0343668,56.6666667 35.0000001,56.6666667 C46.9656334,56.6666667 56.6666667,54.7962574 56.6666667,52.4908137 L56.6666667,44.7967211 C56.6666667,44.2808989 56.1825467,43.7881952 55.2972467,43.3333333 C52.2198867,44.9169967 44.2927467,46.0441951 34.9999134,46.0441951 C25.7070801,46.0441951 17.7801134,44.9169967 14.7025797,43.3333333 L14.7027534,43.3333333 Z M35,13.3333333 C23.0343667,13.3333333 13.3333333,15.276115 13.3333333,17.6707635 L13.3333333,25.6625654 C13.3333333,28.0589711 23.0343667,30 35,30 C46.9656333,30 56.6666667,28.0589272 56.6666667,25.6625654 L56.6666667,17.6707635 C56.6666667,15.276115 46.9656333,13.3333333 35,13.3333333 Z" id="Fill-1" fill="#DA9173"></path>
    </g>
</svg>