<?xml version="1.0" encoding="UTF-8"?>
<svg width="70px" height="70px" viewBox="0 0 70 70" version="1.1" xmlns="http://www.w3.org/2000/svg" xmlns:xlink="http://www.w3.org/1999/xlink">
    <!-- Generator: Sketch 62 (91390) - https://sketch.com -->
    <title>Icons/Categories/Chart</title>
    <desc>Created with Sketch.</desc>
    <g id="Icons/Categories/Chart" stroke="none" stroke-width="1" fill="none" fill-rule="evenodd">
        <path d="M5.06943191,10 C6.00261159,10 6.80553315,10.7984546 6.80553315,11.7322044 L6.80553315,59.8039389 L61.5937972,59.8039389 C62.5947766,59.8039389 63.3298958,60.6023935 63.3298958,61.5361433 C63.392457,62.5322807 62.592174,63.3333333 61.6563918,63.3333333 L5.06943191,63.3333333 C4.06845256,63.3333333 3.33333333,62.5347509 3.33333333,61.6010011 L3.33333333,11.7322044 C3.33333333,10.7334703 4.13358295,10 5.06943191,10 Z M61.6666667,13.8168732 L61.6666667,56.1297063 C61.6666667,56.3968789 61.4657495,56.6666667 61.1317559,56.6666667 L10.5030072,56.6640515 C10.1690137,56.6640515 9.90025573,56.3287782 10.0359373,55.9935049 L10.0363381,55.9933037 L14.2451914,44.7958456 C14.3782678,44.326986 15.0462416,44.326986 15.2471721,44.7958456 L16.8492724,48.617425 C17.0501896,49.0862846 17.7181901,49.020799 17.8512531,48.5493243 L22.5950305,31.5838241 C22.7281069,31.1149645 23.2630177,31.0468637 23.5291437,31.4502378 L28.5390472,39.2976449 C28.7399644,39.5648175 29.1391936,39.6329183 29.3400974,39.3657457 L37.1548789,30.9839128 C37.4210317,30.7167402 37.8907335,30.7822258 38.0237965,31.1855998 L41.2958647,40.1045405 C41.4289411,40.5079145 41.9638518,40.5734001 42.2299779,40.2381268 L60.7325535,13.5497006 C60.9987063,13.1463265 61.6666667,13.3480135 61.6666667,13.8168732 Z" id="Fill-4" fill="#DA73B5"></path>
    </g>
</svg>