<?xml version="1.0" encoding="UTF-8"?>
<svg width="70px" height="70px" viewBox="0 0 70 70" version="1.1" xmlns="http://www.w3.org/2000/svg" xmlns:xlink="http://www.w3.org/1999/xlink">
    <!-- Generator: Sketch 62 (91390) - https://sketch.com -->
    <title>Icons/Categories/Data Build</title>
    <desc>Created with Sketch.</desc>
    <g id="Icons/Categories/Data-Build" stroke="none" stroke-width="1" fill="none" fill-rule="evenodd">
        <path d="M65,40.6666667 L65,55.770529 L50.9574468,63.3333333 L50.9574468,48.229471 L65,40.6666667 Z M35.6382979,40.6666667 L49.6808511,48.2077247 L49.6808511,63.3333333 L35.6382979,55.770529 L35.6382979,40.6666667 Z M34.3617021,40.6666667 L34.3617021,55.770529 L20.3191489,63.3333333 L20.3191489,48.229471 L34.3617021,40.6666667 Z M5,40.6666667 L19.0425532,48.2077247 L19.0425532,63.3333333 L5,55.770529 L5,40.6666667 Z M50.2969824,31.8518519 L63.7234043,39.4183559 L50.3191489,46.962963 L36.9148936,39.4183559 L48.5652606,32.8168597 L50.2969824,31.8518519 Z M19.691997,31.8518519 L30.2761848,37.8391673 L33.0851064,39.4182858 L19.691997,46.962963 L6.27659574,39.396529 L19.691997,31.8518519 Z M49.6807003,15.4814815 L49.6808511,30.6071601 L35.6382979,38.1481481 L35.6382979,23.044426 L45.651675,17.6517428 L49.6807003,15.4814815 Z M20.3191489,15.4814815 L34.3617021,23.0587625 L34.3617021,38.1481481 L20.3191489,30.5708671 L20.3191489,15.4814815 Z M34.9890337,6.66666667 L48.4042553,14.2222222 L34.9886741,21.7777778 L26.8541837,17.1873736 L21.5957447,14.2222222 L34.9890337,6.66666667 Z" id="Fill-1" fill="#A073DA"></path>
    </g>
</svg>