<?xml version="1.0" encoding="UTF-8"?>
<svg width="70px" height="70px" viewBox="0 0 70 70" version="1.1" xmlns="http://www.w3.org/2000/svg" xmlns:xlink="http://www.w3.org/1999/xlink">
    <!-- Generator: Sketch 62 (91390) - https://sketch.com -->
    <title>Icons/Categories/Tap</title>
    <desc>Created with Sketch.</desc>
    <g id="Icons/Categories/Tap" stroke="none" stroke-width="1" fill="none" fill-rule="evenodd">
        <path d="M29.8,3.33333333 C36.0400433,3.33333333 41.0666667,8.51217255 41.0666667,14.9411765 C41.0666667,18.8957199 39.1553571,22.3839597 36.2380952,24.4761905 C36.2380952,21.0398543 36.2349486,17.3281636 36.2380952,14.9411765 C36.2443804,11.2651384 33.3459419,8.30812325 29.8,8.30812325 C26.2540581,8.30812325 23.3619048,11.268372 23.3619048,14.9411765 L23.3619048,24.4761905 C20.4446429,22.3839597 18.5333333,18.8957199 18.5333333,14.9411765 C18.5333333,8.51217255 23.5599567,3.33333333 29.8,3.33333333 Z M32.5989913,15.3214135 C32.5927226,19.5228674 32.5770467,28.2226584 32.5989913,32.1645497 C32.5989913,32.9153671 33.1225944,33.5629521 33.8562681,33.7256092 C34.5930802,33.8882823 35.3393314,33.5191364 35.6591087,32.8402453 C36.0134081,32.105069 37.3490961,31.3635978 38.2175675,31.3635978 C38.6063569,31.3635978 39.3306074,31.5012516 39.7978322,31.8391154 C40.2650569,32.1769793 40.6255287,32.599319 40.6255287,33.7661733 C40.6380662,34.5013497 41.1522703,35.1332616 41.8702842,35.2991222 C42.5851436,35.4649267 43.3250941,35.1208 43.6606033,34.4669362 C44.3127595,33.162396 44.6639205,32.9777951 45.4665743,32.9653015 C45.6891823,32.9653015 46.4698914,33.0841829 46.97155,33.4408191 C47.4732086,33.7974554 47.8494927,34.2323048 47.8494927,35.367877 C47.8620302,35.9966896 48.2414125,36.5566912 48.8214261,36.8038403 C49.3983335,37.0509813 50.0661816,36.9414941 50.533326,36.5191544 C50.4956976,36.5566992 50.815507,36.3846319 51.260731,36.2939092 C51.6840024,36.2094412 52.1982306,36.1719043 52.5900861,36.1687729 C54.4869977,36.4346864 55.4683222,37.5546817 56.1267391,39.7477091 C56.8008398,41.9939145 56.8353298,45.2380862 56.2772366,48.6574087 C55.1923698,55.2959157 51.7717004,62.5132928 48.7774006,65 L28.6107252,65 C24.8137717,60.3636727 20.7346853,54.1850263 16.4200201,45.1287672 L16.3949372,45.0787127 L14.0371418,39.5727186 C14.0277347,39.5508228 14.021466,39.54456 14.0120589,39.5226641 C13.3065985,37.6893883 13.2438952,36.638244 13.4100686,36.0438369 C13.576242,35.4494298 14.0151973,34.9864458 15.0153761,34.316997 C15.0279216,34.3076108 15.0279216,34.301356 15.040459,34.2919697 C15.8211682,33.8571203 16.4733565,33.66942 17.0972592,33.8414793 C17.746277,34.0198014 18.7402112,34.7048993 19.9315901,36.8948033 C19.9378589,36.9073209 19.9504043,36.9073209 19.9566731,36.9198306 L23.0919991,44.0275684 C23.3898559,44.7345861 24.1517429,45.1318906 24.9042307,44.9754803 C25.6567186,44.8159306 26.1928913,44.1464178 26.1771593,43.37686 L26.1771593,15.3463446 C26.1771593,13.4411505 27.4939931,12.1428571 29.3877743,12.1428571 C31.2821575,12.1428571 32.6021216,13.4193428 32.5989913,15.3214135 Z" id="Fill-1" fill="#73C1DA"></path>
    </g>
</svg>