<?xml version="1.0" encoding="UTF-8"?>
<svg width="70px" height="70px" viewBox="0 0 70 70" version="1.1" xmlns="http://www.w3.org/2000/svg" xmlns:xlink="http://www.w3.org/1999/xlink">
    <!-- Generator: Sketch 62 (91390) - https://sketch.com -->
    <title>Icons/Categories/Crystal Ball</title>
    <desc>Created with Sketch.</desc>
    <g id="Icons/Categories/Crystal-Ball" stroke="none" stroke-width="1" fill="none" fill-rule="evenodd">
        <path d="M19.7008175,49.5338223 C19.860462,49.6662275 20.0622356,49.7368421 20.2684423,49.7368421 L49.7315745,49.7368421 C49.9377812,49.7368421 50.1395548,49.6662275 50.2991993,49.5338223 C55.3812008,45.3322524 58.494566,39.2286072 58.9021205,32.665967 C59.3078815,26.1033268 56.9708907,19.6638385 52.4453886,14.8733427 C47.9198865,10.0847677 41.6071609,7.36842105 35.0000084,7.36842105 C28.3928559,7.36842105 22.079733,10.0848807 17.5546282,14.8733427 C13.0291261,19.6641209 10.6920451,26.1033268 11.0978969,32.665967 C11.5058772,39.2286072 14.6189296,45.3325349 19.7008175,49.5338223 Z M41.4473684,21.1842105 C42.4375074,21.2302602 43.4022989,20.8572354 44.1022989,20.1549305 C44.8045979,19.4549305 45.1776168,18.4901389 45.1315789,17.5 C45.1315789,16.9911192 45.5437507,16.5789474 46.0526316,16.5789474 C46.5615124,16.5789474 46.9736842,16.9911192 46.9736842,17.5 C46.9276286,18.4901389 47.3006594,19.4549305 48.0029642,20.1549305 C48.7029642,20.8572295 49.6677558,21.2302484 50.6578947,21.1842105 C51.1667756,21.1842105 51.5789474,21.5963823 51.5789474,22.1052632 C51.5789474,22.614144 51.1667756,23.0263158 50.6578947,23.0263158 C49.6677558,22.9802602 48.7029642,23.3532909 48.0029642,24.0555958 C47.3006653,24.7555958 46.9276463,25.7203874 46.9736842,26.7105263 C46.9736842,27.2194072 46.5615124,27.6315789 46.0526316,27.6315789 C45.5437507,27.6315789 45.1315789,27.2194072 45.1315789,26.7105263 C45.1776286,25.7203874 44.8046038,24.7555958 44.1022989,24.0555958 C43.4022989,23.3532968 42.4375074,22.9802779 41.4473684,23.0263158 C40.9384876,23.0263158 40.5263158,22.614144 40.5263158,22.1052632 C40.5263158,21.5963823 40.9384876,21.1842105 41.4473684,21.1842105 Z M38.6842105,29.4736842 L40.5263158,29.4736842 L40.5263158,27.6315789 L42.3684211,27.6315789 L42.3684211,29.4736842 L44.2105263,29.4736842 L44.2105263,31.3157895 L42.3684211,31.3157895 L42.3684211,33.1578947 L40.5263158,33.1578947 L40.5263158,31.3157895 L38.6842105,31.3157895 L38.6842105,29.4736842 Z M36.8417574,12.8947368 L36.8417574,14.7084895 C33.0258271,14.7084895 29.3165713,15.9758528 26.2995398,18.3155648 C23.2825084,20.6552767 21.1270469,23.9314074 20.173876,27.6315789 L18.4210526,27.1781408 C19.4741149,23.0903775 21.8565494,19.4675154 25.1902416,16.8829904 C28.5260789,14.2961437 32.6249863,12.894998 36.8421053,12.894998 L36.8417574,12.8947368 Z M59.9605279,57.1052632 C61.4362587,57.1052632 62.6315789,58.3417962 62.6315789,59.8684078 C62.6315789,60.1125018 62.5381107,60.3473705 62.3711522,60.5200678 C62.2041937,60.6927651 61.9771529,60.7894737 61.7412115,60.7894737 L61.7412115,60.7894737 L10.1008938,60.7894737 C9.86493524,60.7894737 9.63789448,60.6927828 9.47095308,60.5200678 C9.30401168,60.3473529 9.21052632,60.1124841 9.21052632,59.8684078 C9.21052632,58.3417962 10.4058466,57.1052632 11.8815774,57.1052632 L11.8815774,57.1052632 Z M51.7391304,51.5789474 C52.6730259,51.5789474 53.5694596,51.9680589 54.230195,52.6588632 C54.8909304,53.3496674 55.2631579,54.2868716 55.2631579,55.2631579 L55.2631579,55.2631579 L14.7368421,55.2631579 C14.7368421,53.2276463 16.3138585,51.5789474 18.2608696,51.5789474 L18.2608696,51.5789474 Z M16.7746074,27.6315789 L18.4210526,27.9824918 C18.30449,29.0877774 18.2441279,30.201746 18.2441279,31.3157895 L16.5789474,31.3157895 C16.5789474,30.0819057 16.6455546,28.8508663 16.7746074,27.6315789 Z" id="Fill-1" fill="#44DAD3"></path>
    </g>
</svg>