<?xml version="1.0" encoding="UTF-8"?>
<svg width="70px" height="70px" viewBox="0 0 70 70" version="1.1" xmlns="http://www.w3.org/2000/svg" xmlns:xlink="http://www.w3.org/1999/xlink">
    <!-- Generator: Sketch 62 (91390) - https://sketch.com -->
    <title>Icons/Categories/Notify</title>
    <desc>Created with Sketch.</desc>
    <g id="Icons/Categories/Notify" stroke="none" stroke-width="1" fill="none" fill-rule="evenodd">
        <path d="M51.2390748,10 L17.09132,10 C15.0252354,10 13.3333333,11.6986264 13.3333333,13.7729226 L13.3333333,48.0563952 C13.3333333,50.1306913 15.0252354,51.8293177 17.09132,51.8293177 L28.6823392,51.8293177 L34.1666667,60 L39.6509941,51.8293177 L51.2420133,51.8293177 C53.3080979,51.8293177 55,50.1306913 55,48.0563952 L54.9977021,13.7729226 C54.9977021,11.6963253 53.3058,10 51.2397154,10 L51.2390748,10 Z M34.1666667,41.8181818 C32.5243765,41.8181818 31.1904762,40.4623507 31.1904762,38.7878788 C31.1904762,37.1157288 32.522096,35.7575758 34.1666667,35.7575758 C35.8089568,35.7575758 37.1428571,37.1134068 37.1428571,38.7878788 C37.1428571,40.4623507 35.8089568,41.8181818 34.1666667,41.8181818 Z M37.1428571,32.7272727 L31.1927624,32.7272727 L31.1904762,19.0909091 L37.1405709,19.0909091 L37.1428571,32.7272727 Z" id="Fill-1" fill="#BBDA73"></path>
    </g>
</svg>