<?xml version="1.0" encoding="UTF-8"?>
<svg width="70px" height="70px" viewBox="0 0 70 70" version="1.1" xmlns="http://www.w3.org/2000/svg" xmlns:xlink="http://www.w3.org/1999/xlink">
    <!-- Generator: Sketch 62 (91390) - https://sketch.com -->
    <title>Icons/Categories/ARVR</title>
    <desc>Created with Sketch.</desc>
    <g id="Icons/Categories/ARVR" stroke="none" stroke-width="1" fill="none" fill-rule="evenodd">
        <path d="M58.297639,21.8115942 L52.3081926,21.8115942 C50.7244973,14.0675246 43.8193098,8.33333333 35.8336209,8.33333333 C27.847932,8.33333333 20.9426725,14.0672371 19.3590491,21.8115942 L13.3696027,21.8115942 C11.5107322,21.8115942 10,23.3223096 10,25.1811594 L10,40.9057971 C10,42.764647 11.5107322,44.2753623 13.3696027,44.2753623 L19.0417493,44.2753623 C19.6258138,53.0416232 26.9210486,60 35.8333333,60 C44.745618,60 52.0412123,53.0418388 52.6249173,44.2753623 L58.2970639,44.2753623 C60.1559345,44.2753623 61.6666667,42.764647 61.6666667,40.9057971 L61.6666667,25.1811594 C61.6666667,23.3223096 60.1559345,21.8115942 58.2970639,21.8115942 L58.297639,21.8115942 Z M35.8333333,10 C42.5887997,10 48.4643569,14.9291947 50,21.6666667 L21.6666667,21.6666667 C23.2027404,14.9291947 29.0779387,10 35.8333333,10 Z M35.8343836,58.3333333 C28.3619177,58.3333333 22.2296223,52.44448 21.6666667,45 L50,45 C49.439299,52.4446222 43.3071296,58.3333333 35.8350838,58.3333333 L35.8343836,58.3333333 Z M55.4166667,28.3333333 L52.9166667,28.3333333 C52.2260427,28.3333333 51.6666667,27.960416 51.6666667,27.5 C51.6666667,27.039584 52.2260427,26.6666667 52.9166667,26.6666667 L55.4166667,26.6666667 C56.1072907,26.6666667 56.6666667,27.039584 56.6666667,27.5 C56.6666667,27.960416 56.1072907,28.3333333 55.4166667,28.3333333 Z" id="Fill-2" fill="#DA7373"></path>
    </g>
</svg>